Coordinates
version=1
nRows=24
nColumns=24
inDegrees=yes

Units are S.I. units (second, meters, Newtons, ...)
Angles are in degrees.

endheader
time	pelvis_tilt	pelvis_list	pelvis_rotation	pelvis_tx	pelvis_ty	pelvis_tz	hip_flexion_r	hip_adduction_r	hip_rotation_r	knee_angle_r	ankle_angle_r	subtalar_angle_r	mtp_angle_r	hip_flexion_l	hip_adduction_l	hip_rotation_l	knee_angle_l	ankle_angle_l	subtalar_angle_l	mtp_angle_l	lumbar_extension	lumbar_bending	lumbar_rotation
      1.12883333	      0.40667185	      5.81451485	     -3.41019731	      0.13551198	      0.99473028	      0.35903950	     -5.18250459	     -8.60938319	     -5.50893176	    -46.92986303	    -19.03394146	     -6.28240746	     40.16581641	     16.99230029	     11.12478937	      3.19886583	    -15.50955694	     -1.57584487	    -18.18192859	      1.47910800	    -11.65990788	     -1.65112106	      2.09710497
      1.13300000	      0.50271554	      6.13233255	     -3.47550768	      0.14094126	      0.99441555	      0.35861419	     -4.67565148	     -9.12349478	     -5.49747809	    -48.26426129	    -20.26356295	     -6.50398057	     40.07864708	     16.83014528	     11.53647209	      3.14208571	    -16.01393801	     -1.10595912	    -18.24033791	      1.43726004	    -11.75364913	     -2.01922218	      1.96578259
      1.13716667	      0.56799734	      6.39057163	     -3.53192130	      0.14627466	      0.99409117	      0.35822784	     -4.12369536	     -9.54335101	     -5.43918394	    -49.57394797	    -21.54159788	     -6.94550207	     39.84670488	     16.72394513	     11.87299534	      3.01057200	    -16.57281022	     -0.60737391	    -18.22560717	      1.34613411	    -11.83735281	     -2.32171654	      1.83351745
      1.14133333	      0.66185770	      6.65523745	     -3.61705552	      0.15162540	      0.99386118	      0.35785984	     -3.58686805	     -9.97571598	     -5.34404757	    -50.87328455	    -22.73387364	     -7.19386683	     34.63033448	     16.53435409	     12.21263638	      2.89484505	    -17.02390877	      0.01056398	    -18.12265965	     -0.44306818	    -11.92499156	     -2.59910216	      1.72357654
      1.14550000	      0.72565340	      6.92680830	     -3.69212012	      0.15695748	      0.99363148	      0.35747870	     -3.00809090	    -10.41086246	     -5.25012054	    -52.14271876	    -23.94594397	     -7.57056773	     34.49507493	     16.34689141	     12.56165292	      2.80749705	    -17.40299970	      0.46852634	    -18.17256520	     -0.43117217	    -11.98567674	     -2.88836384	      1.57865174
      1.14966667	      0.80331343	      7.17126982	     -3.77158927	      0.16223252	      0.99343662	      0.35715321	     -2.43275252	    -10.80247967	     -5.12245862	    -53.39523450	    -25.04359718	     -7.87823910	     32.36842628	     16.15646205	     12.85991702	      2.60247373	    -17.81295805	      1.13661352	    -17.85750116	     -0.47650763	    -12.06680459	     -3.16121958	      1.42239244
      1.15383333	      0.91681863	      7.46987814	     -3.85032014	      0.16754233	      0.99336899	      0.35669937	     -1.89109074	    -11.27791952	     -5.02896417	    -54.61173327	    -26.12151693	     -8.16230597	     29.57455041	     15.80202548	     13.27159722	      2.72547972	    -17.93639107	      1.28117792	    -18.37130310	     -0.57324806	    -12.18290560	     -3.47886590	      1.28550774
      1.15800000	      0.98285658	      7.65621675	     -3.94550411	      0.17278709	      0.99331242	      0.35642576	     -1.29774598	    -11.57648538	     -4.83956550	    -55.75352369	    -27.23461265	     -8.61863948	     29.22496342	     15.55775048	     13.50214975	      2.54611929	    -18.21467286	      1.87523346	    -18.09238606	     -0.56540362	    -12.24964669	     -3.67438844	      1.17266129
      1.16216667	      1.08059734	      7.88681132	     -4.02751274	      0.17801252	      0.99329196	      0.35610705	     -0.72392862	    -11.93756965	     -4.68678566	    -56.90937332	    -28.07518740	     -8.87884198	     24.34820937	     15.25350980	     13.79092492	      2.39641745	    -18.42648080	      2.39054916	    -17.89384535	     -0.70196532	    -12.35513633	     -3.91335063	      0.98799283
      1.16633333	      1.18394196	      8.13439216	     -4.13168557	      0.18325564	      0.99336601	      0.35577653	     -0.15039262	    -12.31871563	     -4.50699840	    -58.00217469	    -28.91038959	     -9.19558939	     24.24447743	     14.86966718	     14.11318518	      2.37225647	    -18.46718012	      2.66356899	    -18.01371988	     -0.69634275	    -12.45844642	     -4.18503048	      0.87663240
      1.17050000	      1.28272023	      8.34697142	     -4.22795450	      0.18847416	      0.99348119	      0.35544719	      0.42511459	    -12.64911407	     -4.32367456	    -59.04459777	    -29.63263916	     -9.53013276	     24.08339384	     14.47876826	     14.39592607	      2.33320543	    -18.49478341	      2.98535967	    -18.06900898	     -0.69044014	    -12.55366253	     -4.39403011	      0.74607921
      1.17466667	      1.35188460	      8.49086380	     -4.31108289	      0.19362747	      0.99362165	      0.35518574	      1.03160959	    -12.86246564	     -4.10260299	    -60.05033924	    -30.14097732	     -9.81377158	     17.79626157	     14.13054921	     14.59026674	      2.24341758	    -18.56794311	      3.42609896	    -17.93026110	     -0.80745150	    -12.63231436	     -4.52212070	      0.51277889
      1.17883333	      1.44011070	      8.67305304	     -4.41298410	      0.19882268	      0.99384427	      0.35489087	      1.61916880	    -13.13412895	     -3.88510552	    -60.99321450	    -30.59544491	    -10.10496872	     17.72443131	     13.69953608	     14.83877171	      2.23132955	    -18.49143458	      3.67535644	    -18.00171301	     -0.80136748	    -12.71887562	     -4.70864181	      0.43089876
      1.18300000	      1.53713772	      8.81125474	     -4.51259543	      0.20402059	      0.99417695	      0.35462561	      2.18191292	    -13.33304603	     -3.65298125	    -61.85846000	    -30.94265896	    -10.50556308	     17.33757116	     13.22263066	     15.04254001	      2.26131421	    -18.35515984	      3.91001891	    -18.07705155	     -0.80069884	    -12.79995062	     -4.82887081	      0.30118054
      1.18716667	      1.61893886	      8.95518526	     -4.60752417	      0.20914558	      0.99448165	      0.35435529	      2.77559071	    -13.53559529	     -3.41657455	    -62.71158721	    -31.02967698	    -10.71792323	     17.19272967	     12.78618355	     15.24384636	      2.21801932	    -18.25913838	      4.16937695	    -18.07243062	     -0.79545873	    -12.90039420	     -4.97160878	      0.16652189
      1.19133333	      1.69815879	      9.05398715	     -4.70341842	      0.21428732	      0.99488005	      0.35412951	      3.35863382	    -13.65925920	     -3.15488835	    -63.50162693	    -30.88068224	    -10.85527335	     11.43298408	     12.31012860	     15.39789126	      2.22755339	    -18.09236273	      4.40175037	    -18.08090880	     -0.88779756	    -12.97376781	     -5.05316112	     -0.01117287
      1.19550000	      1.77822431	      9.12849643	     -4.79495093	      0.21942128	      0.99534460	      0.35389868	      3.92503405	    -13.74760442	     -2.90167517	    -64.21077908	    -30.68230830	    -11.14361804	     11.40760078	     11.82303700	     15.52577402	      2.23037975	    -17.91312601	      4.63043756	    -18.06705018	     -0.88208304	    -13.05151542	     -5.10035709	     -0.12037054
      1.19966667	      1.84538772	      9.18550570	     -4.88217794	      0.22453740	      0.99583625	      0.35368841	      4.49796281	    -13.80055855	     -2.64284094	    -64.86574535	    -30.30471226	    -11.40266605	     11.36117552	     11.33120763	     15.63158402	      2.23750996	    -17.69709585	      4.82557842	    -18.04353638	     -0.87802894	    -13.12107129	     -5.13281792	     -0.25402666
      1.20383333	      1.89621882	      9.23305876	     -4.96668277	      0.22966209	      0.99638463	      0.35348577	      5.07821835	    -13.82866964	     -2.37417275	    -65.45837177	    -29.74265271	    -11.56838482	     11.24036740	     10.83052158	     15.72616267	      2.26558554	    -17.42850042	      4.98312042	    -18.01385631	     -0.87823175	    -13.16607274	     -5.16242808	     -0.43505317
      1.20800000	      1.95548425	      9.24743177	     -5.04744747	      0.23477805	      0.99698872	      0.35327236	      5.63363126	    -13.81258847	     -2.11494057	    -65.98671766	    -28.99849826	    -11.72863600	     11.04468546	     10.31025936	     15.78857451	      2.30021602	    -17.15024156	      5.13685428	    -18.01189513	     -0.88390550	    -13.20869053	     -5.11605667	     -0.60020231
      1.21216667	      2.00928795	      9.23433740	     -5.12171349	      0.23985101	      0.99763791	      0.35309663	      6.18290670	    -13.74233864	     -1.84660128	    -66.45332495	    -28.11017625	    -11.90358799	     10.87361988	      9.78748862	     15.81811935	      2.34435645	    -16.85980026	      5.26740139	    -17.99087088	     -0.89088298	    -13.27132692	     -5.07828985	     -0.74815687
      1.21633333	      2.04182806	      9.19608239	     -5.18630533	      0.24493013	      0.99831349	      0.35290785	      6.73698849	    -13.63264244	     -1.58689873	    -66.85277877	    -27.07876546	    -12.05844596	     10.70078579	      9.27283468	     15.82010630	      2.39870027	    -16.54927190	      5.38665213	    -17.97554505	     -0.90131526	    -13.30153809	     -4.98381111	     -0.89265491
      1.22050000	      2.09042361	      9.14079418	     -5.24672612	      0.24999981	      0.99906370	      0.35273522	      7.25623014	    -13.49341538	     -1.33371955	    -67.18322581	    -25.91836975	    -12.20928988	     10.53966865	      8.72601691	     15.80369507	      2.45964896	    -16.21178163	      5.48513636	    -17.95154556	     -0.91479026	    -13.35309905	     -4.88098794	     -1.04073361
      1.22466667	      2.10919621	      9.05890525	     -5.29568134	      0.25505248	      0.99980627	      0.35255518	      7.79263799	    -13.31059139	     -1.08590528	    -67.45341474	    -24.64484958	    -12.35061910	     10.38036344	      8.20590974	     15.75674948	      2.52747627	    -15.87178497	      5.57375504	    -17.92790830	     -0.93259790	    -13.37339680	     -4.73626225	     -1.18673441
